<svg xmlns="http://www.w3.org/2000/svg" viewBox="40 50 520 370" role="img" aria-label="trucker cap illustration (placeholder)">
  <defs>
    <pattern id="mcustompatternblue" width="10" height="10" patternUnits="userSpaceOnUse">
        <rect width="10" height="10" fill="#f2f0ea"/>
        <circle cx="5" cy="5" r="2.7" fill="#858480"/></pattern>
    <clipPath id="ccustompatternblue"><path d="M112 292 C100 158 190 78 300 78 C410 78 500 158 488 292 C420 304 180 304 112 292 Z"/></clipPath>
    <clipPath id="fcustompatternblue"><path d="M206 70 C164 130 150 220 160 310 L440 310 C450 220 436 130 394 70 Z"/></clipPath>
    <radialGradient id="lcustompatternblue" cx=".36" cy=".22" r=".85">
      <stop offset="0" stop-color="#fff" stop-opacity=".32"/>
      <stop offset=".45" stop-color="#fff" stop-opacity="0"/>
      <stop offset="1" stop-color="#000" stop-opacity=".45"/>
    </radialGradient>
    <linearGradient id="bcustompatternblue" x1="0" y1="0" x2="0" y2="1">
      <stop offset="0" stop-color="#437dda"/><stop offset="1" stop-color="#1f4b91"/>
    </linearGradient>
    <radialGradient id="scustompatternblue"><stop offset="0" stop-color="#000" stop-opacity=".7"/><stop offset="1" stop-color="#000" stop-opacity="0"/></radialGradient>
  </defs>
  <ellipse cx="300" cy="392" rx="250" ry="22" fill="url(#scustompatternblue)"/>
  <g clip-path="url(#ccustompatternblue)">
    <rect x="40" y="50" width="520" height="370" fill="url(#mcustompatternblue)"/>
    <g clip-path="url(#fcustompatternblue)"><rect x="40" y="50" width="520" height="370" fill="#2f6fd6"/></g>
    <path d="M206 70 C164 130 150 220 160 310" fill="none" stroke="#1e488b" stroke-width="3"/>
    <path d="M394 70 C436 130 450 220 440 310" fill="none" stroke="#1e488b" stroke-width="3"/>
    
    <g clip-path="url(#fcustompatternblue)"><path transform="translate(232 150) scale(0.85)" d="M0 -14 L4 -4 15 -4 6 3 9 14 0 7 -9 14 -6 3 -15 -4 -4 -4Z" fill="#d4af5a"/><path transform="translate(300 118) scale(1.15)" d="M0 -14 L4 -4 15 -4 6 3 9 14 0 7 -9 14 -6 3 -15 -4 -4 -4Z" fill="#d4af5a"/><path transform="translate(368 150) scale(0.85)" d="M0 -14 L4 -4 15 -4 6 3 9 14 0 7 -9 14 -6 3 -15 -4 -4 -4Z" fill="#d4af5a"/><path transform="translate(262 200) scale(1.15)" d="M0 -14 L4 -4 15 -4 6 3 9 14 0 7 -9 14 -6 3 -15 -4 -4 -4Z" fill="#d4af5a"/><path transform="translate(338 200) scale(0.85)" d="M0 -14 L4 -4 15 -4 6 3 9 14 0 7 -9 14 -6 3 -15 -4 -4 -4Z" fill="#d4af5a"/><path transform="translate(226 250) scale(1.15)" d="M0 -14 L4 -4 15 -4 6 3 9 14 0 7 -9 14 -6 3 -15 -4 -4 -4Z" fill="#d4af5a"/><path transform="translate(300 252) scale(0.85)" d="M0 -14 L4 -4 15 -4 6 3 9 14 0 7 -9 14 -6 3 -15 -4 -4 -4Z" fill="#d4af5a"/><path transform="translate(374 250) scale(1.15)" d="M0 -14 L4 -4 15 -4 6 3 9 14 0 7 -9 14 -6 3 -15 -4 -4 -4Z" fill="#d4af5a"/><path transform="translate(300 182) scale(0.85)" d="M0 -14 L4 -4 15 -4 6 3 9 14 0 7 -9 14 -6 3 -15 -4 -4 -4Z" fill="#d4af5a"/></g>
    <rect x="40" y="50" width="520" height="370" fill="url(#lcustompatternblue)"/>
  </g>
  <path d="M112 292 C100 158 190 78 300 78 C410 78 500 158 488 292 C420 304 180 304 112 292 Z" fill="none" stroke="#000" stroke-opacity=".4" stroke-width="2"/>
  <ellipse cx="300" cy="80" rx="15" ry="6" fill="#275eb5" stroke="#000" stroke-opacity=".35"/>
  <path d="M138 280 C210 302 390 302 462 280 C470 330 420 380 300 382 C180 380 130 330 138 280 Z" fill="url(#bcustompatternblue)" stroke="#000" stroke-opacity=".45" stroke-width="2"/>
  <path d="M138 280 C210 302 390 302 462 280 C470 330 420 380 300 382 C180 380 130 330 138 280 Z" fill="none" stroke="#8cafe8" stroke-width="1.6" stroke-dasharray="7 6" opacity=".55" transform="translate(300 330) scale(.9 .8) translate(-300 -330)"/>
</svg>
